REM DIRINDEX 1\2,1\3,1\4,1\5
REM DIRNAME folder01,folder02,folder03,folder04,folder05
TITLE ""
FILE "Round-02-032-033.mp3" MP3
  TRACK 01 AUDIO
    TITLE "0:"
    INDEX 01 00:00:00
  TRACK 02 AUDIO
    TITLE "2:cjc093_0370"
    INDEX 01 00:00:01
  TRACK 03 AUDIO
    TITLE "0:"
    INDEX 01 00:01:19
  TRACK 04 AUDIO
    TITLE "3:cjc093_0371"
    INDEX 01 00:01:46
  TRACK 05 AUDIO
    TITLE "0:"
    INDEX 01 00:03:51
  TRACK 06 AUDIO
    TITLE "4:cjc093_0372"
    INDEX 01 00:04:29
  TRACK 07 AUDIO
    TITLE "0:"
    INDEX 01 00:07:39
  TRACK 08 AUDIO
    TITLE "3:cjc093_0373"
    INDEX 01 00:08:50
  TRACK 09 AUDIO
    TITLE "0:"
    INDEX 01 00:10:55
  TRACK 10 AUDIO
    TITLE "4:cjc093_0374"
    INDEX 01 00:11:15
  TRACK 11 AUDIO
    TITLE "0:"
    INDEX 01 00:13:69
  TRACK 12 AUDIO
    TITLE "2:cjc093_0375"
    INDEX 01 00:15:11
  TRACK 13 AUDIO
    TITLE "0:"
    INDEX 01 00:16:18
  TRACK 14 AUDIO
    TITLE "3:cjc093_0376"
    INDEX 01 00:16:30
  TRACK 15 AUDIO
    TITLE "0:"
    INDEX 01 00:17:33
  TRACK 16 AUDIO
    TITLE "4:cjc093_0377"
    INDEX 01 00:18:15
  TRACK 17 AUDIO
    TITLE "0:"
    INDEX 01 00:21:21
  TRACK 18 AUDIO
    TITLE "3:cjc093_0378"
    INDEX 01 00:22:32
  TRACK 19 AUDIO
    TITLE "0:"
    INDEX 01 00:24:57
  TRACK 20 AUDIO
    TITLE "4:cjc093_0379"
    INDEX 01 00:25:15
  TRACK 21 AUDIO
    TITLE "0:"
    INDEX 01 00:29:13
  TRACK 22 AUDIO
    TITLE "2:cjc093_0380"
    INDEX 01 00:30:26
  TRACK 23 AUDIO
    TITLE "0:"
    INDEX 01 00:31:51
  TRACK 24 AUDIO
    TITLE "3:cjc093_0381"
    INDEX 01 00:31:69
  TRACK 25 AUDIO
    TITLE "0:"
    INDEX 01 00:33:15
  TRACK 26 AUDIO
    TITLE "4:cjc093_0382"
    INDEX 01 00:33:44
  TRACK 27 AUDIO
    TITLE "0:"
    INDEX 01 00:35:72
  TRACK 28 AUDIO
    TITLE "2:cjc093_0383"
    INDEX 01 00:37:08
  TRACK 29 AUDIO
    TITLE "0:"
    INDEX 01 00:38:10
  TRACK 30 AUDIO
    TITLE "3:cjc093_0384"
    INDEX 01 00:38:30
  TRACK 31 AUDIO
    TITLE "0:"
    INDEX 01 00:39:27
  TRACK 32 AUDIO
    TITLE "4:cjc093_0385"
    INDEX 01 00:39:62
  TRACK 33 AUDIO
    TITLE "0:"
    INDEX 01 00:44:09
  TRACK 34 AUDIO
    TITLE "4:cjc093_0386"
    INDEX 01 00:44:56
  TRACK 35 AUDIO
    TITLE "0:"
    INDEX 01 00:49:18
  TRACK 36 AUDIO
    TITLE "3:cjc093_0387"
    INDEX 01 00:50:29
  TRACK 37 AUDIO
    TITLE "0:"
    INDEX 01 00:52:43
  TRACK 38 AUDIO
    TITLE "4:cjc093_0388"
    INDEX 01 00:53:15
  TRACK 39 AUDIO
    TITLE "0:"
    INDEX 01 00:56:74
  TRACK 40 AUDIO
    TITLE "2:cjc093_0389"
    INDEX 01 00:58:11
  TRACK 41 AUDIO
    TITLE "0:"
    INDEX 01 00:59:12
  TRACK 42 AUDIO
    TITLE "3:cjc093_0390"
    INDEX 01 00:59:51
  TRACK 43 AUDIO
    TITLE "0:"
    INDEX 01 01:01:38
  TRACK 44 AUDIO
    TITLE "4:cjc093_0391"
    INDEX 01 01:02:20
  TRACK 45 AUDIO
    TITLE "0:"
    INDEX 01 01:06:28
  TRACK 46 AUDIO
    TITLE "2:cjc093_0392"
    INDEX 01 01:07:41
  TRACK 47 AUDIO
    TITLE "0:"
    INDEX 01 01:08:60
  TRACK 48 AUDIO
    TITLE "3:cjc093_0393"
    INDEX 01 01:09:20
  TRACK 49 AUDIO
    TITLE "0:"
    INDEX 01 01:11:51
  TRACK 50 AUDIO
    TITLE "4:cjc093_0394"
    INDEX 01 01:12:28
  TRACK 51 AUDIO
    TITLE "0:"
    INDEX 01 01:16:34
  TRACK 52 AUDIO
    TITLE "2:cjc093_0395"
    INDEX 01 01:17:45
  TRACK 53 AUDIO
    TITLE "0:"
    INDEX 01 01:18:51
  TRACK 54 AUDIO
    TITLE "2:cjc093_0396"
    INDEX 01 01:19:13
  TRACK 55 AUDIO
    TITLE "0:"
    INDEX 01 01:21:06
  TRACK 56 AUDIO
    TITLE "3:cjc093_0397"
    INDEX 01 01:21:35
  TRACK 57 AUDIO
    TITLE "0:"
    INDEX 01 01:22:54
  TRACK 58 AUDIO
    TITLE "4:cjc093_0398"
    INDEX 01 01:23:16
  TRACK 59 AUDIO
    TITLE "0:"
    INDEX 01 01:26:54
  TRACK 60 AUDIO
    TITLE "3:cjc093_0399"
    INDEX 01 01:27:65
  TRACK 61 AUDIO
    TITLE "0:"
    INDEX 01 01:28:63
  TRACK 62 AUDIO
    TITLE "4:cjc093_0400"
    INDEX 01 01:29:15
  TRACK 63 AUDIO
    TITLE "0:"
    INDEX 01 01:32:72
